<?xml version="1.0" encoding="UTF-8"?>
<svg version="1.1" xmlns="http://www.w3.org/2000/svg" width="320" height="320" >
<path d="M0 0 C105.6 0 211.2 0 320 0 C320 105.6 320 211.2 320 320 C214.4 320 108.8 320 0 320 C0 214.4 0 108.8 0 0 Z " fill="#0D7E80" transform="translate(0,0)"/>
<path d="M0 0 C2.4375 1.5625 2.4375 1.5625 4 4 C4.625 7.4375 4.625 7.4375 4 11 C-0.67291516 15.72593041 -5.97724594 18.05296539 -12.0625 20.5625 C-13.00134033 20.95526123 -13.94018066 21.34802246 -14.9074707 21.75268555 C-49.98378988 36.22004344 -89.37208708 39.42592494 -125 25 C-139.10451271 18.98338968 -139.10451271 18.98338968 -142 14 C-142.52755517 10.38247881 -142.45932313 8.69817115 -140.4375 5.625 C-137.90371026 3.93580684 -136.21242091 3.30564541 -133.15625 3.48046875 C-129.26181135 4.4188027 -125.88104114 6.48680256 -122.35546875 8.34375 C-95.88241422 21.41077575 -63.39843125 21.11255092 -35.74291992 12.05029297 C-27.15730837 9.09847691 -18.48442736 5.97037104 -10.5 1.625 C-6.59293706 -0.18899351 -4.2518192 -0.65412603 0 0 Z " fill="#FAFCFC" transform="translate(279,167)"/>
<path d="M0 0 C4.46876455 3.07848225 8.07974831 6.73924494 9.8125 11.9375 C10.66291053 18.09690199 9.70291903 22.09742899 6.19921875 27.2109375 C2.8216092 31.41629925 0.03747063 33.51491764 -5.453125 34.234375 C-11.0493649 34.54336984 -14.92700171 33.79560604 -19.4921875 30.46875 C-24.29250294 26.13298121 -25.44847076 22.28346116 -25.8125 16 C-25.61998834 10.70261023 -24.47578984 7.45497643 -20.953125 3.49609375 C-14.90840207 -1.8398453 -7.4074029 -2.4691343 0 0 Z " fill="#FBFDFD" transform="translate(271.1875,88.0625)"/>
<path d="M0 0 C4.54267328 1.84962267 8.60302192 4.62903997 11 9 C12.70849188 14.79666888 12.91357975 20.63603476 10.5 26.25 C7.99679498 30.64158776 4.70600015 33.20407062 0 35 C-5.92708245 36.05913501 -10.73366528 34.93699436 -16 32 C-20.22163448 28.43506422 -22.64071237 25.45814346 -23.21875 19.89453125 C-23.42225826 14.83226318 -22.94656558 11.27727262 -20 7 C-13.62940823 0.71788868 -9.05458041 -1.09826447 0 0 Z " fill="#FBFDFD" transform="translate(76,87)"/>
</svg>
