<?xml version="1.0" encoding="UTF-8"?>
<svg version="1.1" xmlns="http://www.w3.org/2000/svg" width="1800" height="756">
<path d="M0 0 C19.47 0 38.94 0 59 0 C65.70994162 18.26205349 72.382084 36.53567614 78.97268677 54.84115601 C80.37025547 58.72291636 81.76885705 62.6043033 83.16772461 66.4855957 C85.13502074 71.94434821 87.10187202 77.40326077 89.06835938 82.86230469 C93.06265566 93.95042827 97.05907019 105.03778791 101.05681896 116.12466717 C102.52120149 120.18587972 103.98495105 124.24731996 105.44848633 128.30883789 C115.2697462 155.54985493 125.14168688 182.77227805 135 210 C135.495 106.05 135.495 106.05 136 0 C156.13 0 176.26 0 197 0 C197 118.8 197 237.6 197 360 C168.34615385 363.58173077 168.34615385 363.58173077 156.19311523 364.93530273 C153.87502909 365.19448479 151.55765795 365.45957527 149.24023438 365.72460938 C147.73181062 365.89358469 146.22334856 366.06221855 144.71484375 366.23046875 C144.038806 366.3085527 143.36276825 366.38663666 142.66624451 366.46708679 C138.42525329 366.93159672 134.26453829 367.06796489 130 367 C122.1581816 345.57463291 114.73627981 324.00451057 107.27336121 302.44511414 C103.6993936 292.12407678 100.10213737 281.81123306 96.5 271.5 C92.51975428 260.10641971 88.54955195 248.70949097 84.6015625 237.3046875 C84.22823792 236.22668884 83.85491333 235.14869019 83.47027588 234.0380249 C81.66903539 228.83655207 79.86923843 223.63458936 78.07226562 218.43164062 C73.16071274 204.24324248 68.08674211 190.12983919 63 176 C62.67 242 62.34 308 62 376 C5 384 5 384 0 384 C0 257.28 0 130.56 0 0 Z " fill="#E50914" transform="translate(186,186)"/>
<path d="M0 0 C21.78 0 43.56 0 66 0 C69.00216235 6.60475717 71.89774656 13.05332556 74.42578125 19.8203125 C74.88320457 21.02981316 74.88320457 21.02981316 75.34986877 22.26374817 C76.0023536 23.98947638 76.65333845 25.71577236 77.30291748 27.44259644 C79.04576101 32.07323296 80.80255708 36.69857262 82.55859375 41.32421875 C82.92035706 42.27770706 83.28212036 43.23119537 83.65484619 44.21357727 C87.33260001 53.89636435 91.05913286 63.55995404 94.8152771 73.21258545 C95.51965005 75.02377223 96.22264141 76.83549696 96.92422485 78.64776611 C97.90159271 81.17155113 98.88366951 83.69345019 99.8671875 86.21484375 C100.15606339 86.96288773 100.44493927 87.7109317 100.74256897 88.48164368 C101.95340586 91.5707537 103.15143062 94.22714594 105 97 C105.47606689 95.8975293 105.95213379 94.79505859 106.44262695 93.65917969 C106.76238495 92.91868881 107.08214294 92.17819794 107.41159058 91.41526794 C108.14468771 89.71756657 108.87778082 88.01986346 109.61087036 86.32215881 C111.69955339 81.48515898 113.78831161 76.64819163 115.87719727 71.8112793 C119.93034153 62.4258315 123.98305181 53.04019779 128.03309631 43.65341187 C129.75427563 39.66430436 131.47580445 35.67534773 133.19735718 31.68640137 C134.0186785 29.78307504 134.83982749 27.87967434 135.66079712 25.97619629 C136.81378702 23.30295017 137.96738052 20.62996525 139.12109375 17.95703125 C139.45577667 17.18061783 139.79045959 16.40420441 140.13528442 15.60426331 C142.38849841 10.38615388 144.69127309 5.19463556 147 0 C169.11 0 191.22 0 214 0 C213.2884745 3.5576275 212.70554851 6.01829297 211.32373047 9.22460938 C210.97667557 10.03632599 210.62962067 10.8480426 210.27204895 11.68435669 C209.89094467 12.56195648 209.50984039 13.43955627 209.1171875 14.34375 C208.71541794 15.27927704 208.31364838 16.21480408 207.89970398 17.17868042 C206.56288267 20.28785456 205.21901146 23.39392794 203.875 26.5 C202.92665522 28.70118528 201.97866369 30.90252279 201.03100586 33.10400391 C198.02867678 40.0728067 195.01585164 47.03704017 192 54 C191.51867615 55.11129272 191.03735229 56.22258545 190.54144287 57.36755371 C185.78357376 68.3497432 181.01753204 79.32837793 176.24839783 90.30567932 C170.351579 103.87936288 164.46635836 117.45800887 158.59909058 131.04449463 C157.67999965 133.17230288 156.76036994 135.2998785 155.84011841 137.42718506 C155.4082724 138.42558411 154.97642639 139.42398315 154.53149414 140.45263672 C153.8934082 141.92595207 153.8934082 141.92595207 153.24243164 143.42903137 C152.40666949 145.37230165 151.57914962 147.31913924 150.76025391 149.26957703 C148.63517184 154.31938681 146.39722231 159.25367418 143.92553711 164.14428711 C137.74368028 176.19127291 137.74368028 176.19127291 138.03326416 189.28715515 C139.47280757 193.31877969 141.29227991 197.10427219 143.1875 200.9375 C143.96605303 202.67745229 144.73491498 204.42176784 145.49487305 206.16992188 C147.11490366 209.88129657 148.77144382 213.57306079 150.45214844 217.25732422 C154.38790794 225.99687712 157.73495394 234.9674044 161.13955688 243.9236145 C163.11855068 249.11410306 165.13366781 254.29054519 167.14453125 259.46875 C167.95541346 261.56113105 168.76612313 263.65357897 169.57666016 265.74609375 C171.97070272 271.92485808 174.36599835 278.10313605 176.76171875 284.28125 C177.15353333 285.29166855 177.5453479 286.3020871 177.94903564 287.34312439 C179.52316966 291.40244221 181.09735711 295.46173931 182.67156982 299.52102661 C186.76476979 310.07588682 190.85739067 320.63096978 194.94699097 331.18722534 C196.69046198 335.68742265 198.43432725 340.18746713 200.17822266 344.6875 C201.00768401 346.82821143 201.83695318 348.96899733 202.66601562 351.10986328 C203.81721812 354.08254697 204.96908915 357.05497083 206.12109375 360.02734375 C206.62297462 361.32411293 206.62297462 361.32411293 207.13499451 362.64707947 C207.45452591 363.47115799 207.77405731 364.29523651 208.10327148 365.14428711 C208.41086395 365.94019257 208.71845642 366.73609802 209.03536987 367.55612183 C209.71518686 369.27842952 210.41532017 370.99278627 211.12991333 372.70095825 C211.49704437 373.58282806 211.86417542 374.46469788 212.24243164 375.37329102 C212.74680504 376.56088768 212.74680504 376.56088768 213.2613678 377.7724762 C214 380 214 380 214 384 C213.00589111 383.88897949 212.01178223 383.77795898 210.98754883 383.66357422 C210.31165207 383.58833527 209.63575531 383.51309631 208.93937683 383.43557739 C207.37077422 383.26066821 205.80226623 383.0849089 204.23384094 382.90841675 C199.42957 382.37055703 194.62387616 381.85706108 189.81396484 381.37207031 C184.24506451 380.8064842 178.68567954 380.17737647 173.12719727 379.51757812 C170.81301839 379.25345721 168.49639847 379.00999138 166.17797852 378.78613281 C146.99928542 376.91242188 146.99928542 376.91242188 142.60058594 372.70483398 C141.23437753 369.48277564 140.64509848 366.43898982 140 363 C139.00736563 360.1470114 137.83411999 357.37275938 136.6796875 354.58203125 C136.06088457 353.00661921 135.44601265 351.42965848 134.8347168 349.85131836 C134.51594574 349.0317868 134.19717468 348.21225525 133.8687439 347.3678894 C133.54080841 346.5246109 133.21287292 345.6813324 132.875 344.8125 C132.18602711 343.04367261 131.49697905 341.27487449 130.80786133 339.50610352 C128.53575346 333.67183123 126.26742522 327.83609351 124 322 C123.58381409 320.92882935 123.16762817 319.85765869 122.73883057 318.75402832 C119.71975415 310.98261478 116.70293645 303.21032657 113.6875 295.4375 C113.27377136 294.37125397 112.86004272 293.30500793 112.43377686 292.20645142 C111.25088986 289.15737237 110.06867933 286.10803201 108.88671875 283.05859375 C108.53736771 282.15815338 108.18801666 281.25771301 107.82807922 280.32998657 C105.85308116 275.23168306 103.91020623 270.12294383 102 265 C98.92863901 268.60203957 97.24809521 272.71231144 95.4375 277.03125 C94.9215477 278.24289574 94.9215477 278.24289574 94.39517212 279.47901917 C93.64934351 281.23215985 92.90599931 282.98635908 92.16485596 284.7414856 C90.58212288 288.48958164 88.98764044 292.2326418 87.39395142 295.97608948 C86.5562238 297.94427625 85.71913757 299.91273613 84.88265991 301.88145447 C80.58394221 311.99558178 76.23330702 322.08708417 71.87304688 332.17480469 C70.64626529 335.01329697 69.42068699 337.85230629 68.1953125 340.69140625 C67.43496229 342.45185162 66.67454883 344.21226968 65.9140625 345.97265625 C65.57621735 346.75540421 65.23837219 347.53815216 64.89028931 348.34461975 C62.62727134 353.5782682 60.32485644 358.79353581 58 364 C44.11512965 363.31382908 30.32303448 361.88171263 16.5 360.4375 C14.21227002 360.20087743 11.92450978 359.96454719 9.63671875 359.72851562 C4.09079296 359.15570916 -1.45475018 358.57931194 -7 358 C-5.30231991 352.50959438 -3.05313124 347.3134904 -0.765625 342.05078125 C-0.12742577 340.57421051 -0.12742577 340.57421051 0.52366638 339.06781006 C1.93015957 335.81504627 3.34010538 332.56379072 4.75 329.3125 C5.74155436 327.02086531 6.73284238 324.72911538 7.72387695 322.43725586 C9.78640865 317.66801215 11.85009222 312.8992693 13.91455078 308.13085938 C18.22608513 298.16965257 22.52273505 288.20203292 26.81982422 278.23458862 C29.0965072 272.95421422 31.37441384 267.67436783 33.65234375 262.39453125 C34.09697968 261.36393082 34.5416156 260.33333038 34.99972534 259.27149963 C43.17619405 240.32007425 43.17619405 240.32007425 45.53172302 234.86494446 C47.56339707 230.1598143 49.59300242 225.45382368 51.61694336 220.74536133 C54.82907917 213.28009793 58.05374921 205.82683645 61.4375 198.4375 C62.16791504 196.82633301 62.16791504 196.82633301 62.91308594 195.18261719 C63.75916755 193.32667629 64.62001275 191.47733481 65.50097656 189.63769531 C65.85643555 188.85491211 66.21189453 188.07212891 66.578125 187.265625 C66.88137695 186.62399414 67.18462891 185.98236328 67.49707031 185.32128906 C69.01463721 178.31690748 65.97020605 171.61051494 63.4140625 165.22265625 C62.86152298 163.80919167 62.86152298 163.80919167 62.29782104 162.36717224 C61.08195101 159.26224226 59.85340108 156.16249116 58.625 153.0625 C57.76269867 150.86626728 56.90138749 148.66964556 56.04101562 146.47265625 C54.25285814 141.90880138 52.46045149 137.34664994 50.66503906 132.78564453 C46.96445128 123.37544928 43.31574735 113.94524093 39.66690063 104.51489258 C37.70872769 99.45560913 35.74677834 94.39779063 33.78515625 89.33984375 C32.99495392 87.30192077 32.20475209 85.26399759 31.41455078 83.22607422 C28.50034633 75.71108824 25.5846229 68.19669168 22.66905212 60.68223572 C19.48125932 52.46555887 16.29589816 44.24794175 13.11219788 36.02967834 C11.20207399 31.09949846 9.28946131 26.17030443 7.37272644 21.24269104 C6.6236724 19.3158195 5.87604035 17.38840464 5.12915039 15.46069336 C4.28454704 13.28082425 3.43758737 11.10186579 2.58764648 8.92407227 C2.23516846 8.01197998 1.88269043 7.0998877 1.51953125 6.16015625 C1.07250854 5.00978882 1.07250854 5.00978882 0.61645508 3.83618164 C0 2 0 2 0 0 Z " fill="#E50914" transform="translate(1400,186)"/>
<path d="M0 0 C55.44 0 110.88 0 168 0 C168 19.8 168 39.6 168 60 C132.69 60 97.38 60 61 60 C61 86.4 61 112.8 61 140 C87.73 140 114.46 140 142 140 C142 159.8 142 179.6 142 200 C115.27 200 88.54 200 61 200 C61 229.37 61 258.74 61 289 C67.27 288.34 73.54 287.68 80 287 C85.93425168 286.53923053 91.8659903 286.10184404 97.8046875 285.7109375 C99.42792011 285.60188519 101.05113964 285.49263789 102.67434692 285.38320923 C106.03697499 285.1573724 109.3997642 284.93416743 112.76269531 284.71289062 C117.03563434 284.43147628 121.3080487 284.14281324 125.58036613 283.8521328 C128.91763085 283.62597232 132.25515991 283.4039227 135.59277725 283.18303299 C137.16745835 283.07829392 138.74205495 282.97227507 140.31655502 282.86484909 C142.52442024 282.71477695 144.73259271 282.57036935 146.94091797 282.42724609 C148.18710907 282.34445404 149.43330017 282.26166199 150.71725464 282.17636108 C156.47359112 281.93931833 162.23878494 282 168 282 C168 301.8 168 321.6 168 342 C139.46995977 344.28240322 139.46995977 344.28240322 126.04647827 345.20082092 C122.59347115 345.43729528 119.14072351 345.67747383 115.68794632 345.91727829 C112.94626141 346.10764749 110.20454772 346.29759777 107.46282959 346.48748779 C65.8880168 349.36816876 65.8880168 349.36816876 24.36279297 352.88232422 C23.51048096 352.95954712 22.65816895 353.03677002 21.7800293 353.11633301 C20.26690663 353.25404968 18.75413673 353.39576365 17.24194336 353.54333496 C11.42537332 354.07316461 5.9235554 354 0 354 C0 237.18 0 120.36 0 0 Z " fill="#E50914" transform="translate(440,186)"/>
<path d="M0 0 C55.44 0 110.88 0 168 0 C168 19.8 168 39.6 168 60 C132.69 60 97.38 60 61 60 C61 85.41 61 110.82 61 137 C87.73 137 114.46 137 142 137 C142 156.8 142 176.6 142 197 C115.27 197 88.54 197 61 197 C61 242.21 61 287.42 61 334 C40.87 334 20.74 334 0 334 C0 223.78 0 113.56 0 0 Z " fill="#E50914" transform="translate(870,186)"/>
<path d="M0 0 C61.71 0 123.42 0 187 0 C187 19.8 187 39.6 187 60 C166.21 60 145.42 60 124 60 C124 150.75 124 241.5 124 335 C118.77084517 335.65364435 113.92257617 336.15871367 108.703125 336.31640625 C108.02940857 336.33718735 107.35569214 336.35796844 106.66156006 336.37937927 C105.23975965 336.42231674 103.81790195 336.46339477 102.39599609 336.50268555 C100.29636411 336.56120771 98.19704625 336.62677886 96.09765625 336.69335938 C85.05151316 337.01643598 74.06325022 337 63 337 C63 245.59 63 154.18 63 60 C42.21 60 21.42 60 0 60 C0 40.2 0 20.4 0 0 Z " fill="#E50914" transform="translate(645,186)"/>
<path d="M0 0 C20.13 0 40.26 0 61 0 C61 92.07 61 184.14 61 279 C65.62 279 70.24 279 75 279 C78.18842486 279.11738868 81.36080695 279.25388448 84.54394531 279.44311523 C85.39133774 279.49027679 86.23873016 279.53743835 87.11180115 279.58602905 C89.85081888 279.73956259 92.58946492 279.89881735 95.328125 280.05859375 C97.25387326 280.16852104 99.17963442 280.27822262 101.10540771 280.38771057 C105.10932759 280.61628312 109.11306661 280.84775037 113.11669922 281.08129883 C118.25445529 281.38073891 123.39261541 281.67249354 128.53093338 281.96211147 C132.49265803 282.18629576 136.45413553 282.41462224 140.41555023 282.64421272 C142.31175943 282.75357856 144.20804609 282.86160992 146.10440826 282.96829033 C148.73946879 283.11711614 151.37414186 283.27154113 154.00878906 283.42749023 C154.79311813 283.47064865 155.5774472 283.51380707 156.38554382 283.55827332 C161.77149119 283.8857456 161.77149119 283.8857456 164 285 C164 304.8 164 324.6 164 345 C158.52148438 344.71125 153.04296875 344.4225 147.3984375 344.125 C140.26564717 343.74957778 133.13283163 343.3746367 126 343 C125.17403824 342.95661499 124.34807648 342.91322998 123.49708557 342.86853027 C113.95164214 342.36730514 104.40606498 341.86874927 94.86023331 341.37496948 C90.85971295 341.16798883 86.85924388 340.96011314 82.85888672 340.75 C55.24458125 339.30241892 27.63106775 338.15129449 0 337 C0 225.79 0 114.58 0 0 Z " fill="#E50914" transform="translate(1076,186)"/>
<path d="M0 0 C20.13 0 40.26 0 61 0 C61 116.49 61 232.98 61 353 C48.62177163 353 48.62177163 353 44.26904297 352.64868164 C43.29208466 352.57182632 42.31512634 352.49497101 41.30856323 352.41578674 C40.29665924 352.33142868 39.28475525 352.24707062 38.2421875 352.16015625 C37.1725174 352.07374374 36.10284729 351.98733124 35.00076294 351.89830017 C32.76367554 351.71637582 30.52676748 351.5322334 28.29003906 351.34594727 C24.8501271 351.06043556 21.40952296 350.78468534 17.96875 350.50976562 C15.78901497 350.33130878 13.60932562 350.15229289 11.4296875 349.97265625 C10.3975412 349.89032242 9.3653949 349.80798859 8.30197144 349.72315979 C7.35653473 349.64315231 6.41109802 349.56314484 5.43701172 349.48071289 C4.60193085 349.41187393 3.76684998 349.34303497 2.90646362 349.27210999 C1 349 1 349 0 348 C-0.09756861 346.14948546 -0.12371369 344.29519199 -0.12304783 342.4421072 C-0.12503888 341.22789449 -0.12702993 340.01368178 -0.12908131 338.76267475 C-0.12622772 337.39788955 -0.12328211 336.03310453 -0.12025452 334.6683197 C-0.12069009 333.23202593 -0.12156475 331.79573223 -0.12284368 330.35943896 C-0.12509134 326.39394057 -0.12106369 322.42846893 -0.11606562 318.46297395 C-0.11176516 314.19369465 -0.11320726 309.92441697 -0.1139679 305.65513611 C-0.11449339 298.25211667 -0.11134395 290.84910602 -0.10573006 283.44608879 C-0.09761847 272.74244101 -0.09500019 262.03879749 -0.09374207 251.33514697 C-0.09155101 233.97106888 -0.08488947 216.60699547 -0.07543945 199.24291992 C-0.06626673 182.37084985 -0.05918521 165.49878105 -0.05493164 148.62670898 C-0.05466892 147.58749725 -0.05440619 146.54828551 -0.05413551 145.47758251 C-0.05283051 140.26439635 -0.0515668 135.05121019 -0.05032361 129.83802402 C-0.03994932 86.55867927 -0.02205519 43.27934024 0 0 Z " fill="#E50914" transform="translate(1289,186)"/>
</svg>
