<?xml version="1.0" encoding="UTF-8"?>
<svg version="1.1" xmlns="http://www.w3.org/2000/svg" width="512" height="512">
<path d="M0 0 C1.02738281 0.7115625 2.05476563 1.423125 3.11328125 2.15625 C19.08301285 13.77060026 32.54329466 28.28683905 43 45 C43.41040527 45.64614258 43.82081055 46.29228516 44.24365234 46.95800781 C54.12100969 62.72817495 60.86460957 80.65741895 64 99 C64.1662236 99.92982193 64.3324472 100.85964386 64.50370789 101.81764221 C66.28164724 113.18221737 66.29557763 124.47552666 66.30496025 135.95930672 C66.3086639 139.6041979 66.32549324 143.24882662 66.34571838 146.8936615 C66.40078792 157.24473201 66.43192575 167.59583772 66.45629883 177.94702148 C66.47216461 184.30564944 66.5023543 190.66408387 66.54106331 197.02261162 C66.55270141 199.43750394 66.55864355 201.85243078 66.55874443 204.26735115 C66.55893632 207.63425147 66.57718607 211.00061472 66.59936523 214.36743164 C66.59478806 215.36022629 66.59021088 216.35302094 66.585495 217.37590027 C66.65015355 223.54525782 67.42776423 227.80848324 71.41461182 232.75518799 C71.90201843 233.22688416 72.38942505 233.69858032 72.89160156 234.18457031 C73.44938293 234.73244202 74.00716431 235.28031372 74.58184814 235.8447876 C75.47719269 236.70278961 75.47719269 236.70278961 76.390625 237.578125 C77.01346375 238.18960388 77.63630249 238.80108276 78.27801514 239.43109131 C80.92293894 242.02739793 83.58517834 244.60566441 86.24658203 247.18505859 C104.69000692 265.10895039 104.69000692 265.10895039 108.875 276.8125 C109.26429688 277.87082031 109.65359375 278.92914063 110.0546875 280.01953125 C114.94878481 295.45009427 113.5429131 315.15038731 106.4375 329.5625 C98.32406673 343.41129126 86.43574116 352.69558043 71 357 C67.12535854 357.73807064 63.45813574 358.12609152 59.51631737 358.13142776 C57.91061994 358.13718948 57.91061994 358.13718948 56.27248418 358.1430676 C55.10751649 358.14220112 53.9425488 358.14133463 52.74227905 358.14044189 C51.49605227 358.14341302 50.24982549 358.14638414 48.96583426 358.1494453 C45.51366086 358.15661181 42.06153723 358.15930354 38.60935998 358.16004276 C34.88322409 358.16189747 31.15709891 358.16944693 27.43096924 358.17617798 C19.28615195 358.18974521 11.1413396 358.19578358 2.99651289 358.20018864 C-2.09222422 358.20295392 -7.18095945 358.20719181 -12.26969528 358.21169281 C-26.36758874 358.22388363 -40.46548068 358.23418315 -54.56337929 358.2375679 C-55.46523886 358.23778747 -56.36709843 358.23800703 -57.29628708 358.23823325 C-58.65225704 358.23856067 -58.65225704 358.23856067 -60.03562033 358.2388947 C-61.86733413 358.23933816 -63.69904792 358.23978473 -65.53076172 358.24023438 C-66.4393491 358.2404558 -67.34793649 358.24067723 -68.28405683 358.24090537 C-82.99987224 358.24485172 -97.71563808 358.2623016 -112.43143435 358.2855939 C-127.55125013 358.30933187 -142.67104108 358.32177087 -157.79087579 358.32293582 C-166.27550417 358.32385123 -174.76006796 358.32956974 -183.2446785 358.34775543 C-190.47081565 358.36318949 -197.69686826 358.36825745 -204.92301877 358.36001733 C-208.60654551 358.35612243 -212.28990216 358.35698329 -215.97340775 358.37107468 C-219.97585244 358.38624544 -223.97791733 358.37791283 -227.9803772 358.36749268 C-229.70775224 358.37957728 -229.70775224 358.37957728 -231.47002375 358.39190602 C-247.99560674 358.29163913 -262.46730326 352.88034926 -274.23046875 341.12109375 C-286.75666674 327.63830272 -288.77141165 311.54929461 -288.34765625 293.8125 C-287.41692615 273.10292127 -275.48690803 260.36351188 -261.46484375 246.51953125 C-260.97291534 246.0325174 -260.48098694 245.54550354 -259.97415161 245.04373169 C-257.47388709 242.56901266 -254.9659095 240.1033171 -252.44140625 237.65332031 C-251.51070312 236.73776367 -250.58 235.82220703 -249.62109375 234.87890625 C-248.7798999 234.0597876 -247.93870605 233.24066895 -247.07202148 232.39672852 C-242.3532166 226.93843848 -242.71097867 221.44537279 -242.72875977 214.56030273 C-242.72353302 213.50905212 -242.71830627 212.45780151 -242.71292114 211.37469482 C-242.70268451 209.09178089 -242.69690133 206.80884364 -242.69503975 204.52590752 C-242.69136698 200.8947715 -242.67460882 197.26390643 -242.65428162 193.63282776 C-242.59899944 183.30808602 -242.56839634 172.98330253 -242.54370117 162.65844727 C-242.52767317 156.33722127 -242.49728388 150.01618283 -242.45893669 143.69505501 C-242.44740472 141.30289796 -242.44135739 138.9107071 -242.44125557 136.51852226 C-242.44021475 118.55157428 -241.56421192 100.82506363 -236.375 83.5 C-236.12339111 82.645271 -235.87178223 81.79054199 -235.61254883 80.90991211 C-230.96788788 65.81372633 -224.14400115 51.85483723 -215 39 C-214.2884375 37.97261719 -213.576875 36.94523437 -212.84375 35.88671875 C-201.21370656 19.89540903 -186.69333909 6.52251966 -170 -4 C-169.41331543 -4.37801758 -168.82663086 -4.75603516 -168.22216797 -5.14550781 C-118.02346457 -37.16507835 -48.18186658 -34.27309389 0 0 Z M-174 40 C-174.67675781 40.61230469 -175.35351562 41.22460938 -176.05078125 41.85546875 C-189.17606104 54.19165357 -198.59956216 71.13449252 -204.375 88.0625 C-204.60155273 88.72088867 -204.82810547 89.37927734 -205.06152344 90.05761719 C-209.80802231 104.96804749 -210.43174573 119.48355804 -210.41069031 135.0057106 C-210.4061523 138.6487456 -210.42037834 142.29131003 -210.43908691 145.93429565 C-210.48176941 154.97362994 -210.49308818 164.01295084 -210.50531006 173.05236816 C-210.51689171 180.7184651 -210.54059282 188.38434431 -210.58000183 196.05035019 C-210.59345219 199.6163561 -210.58942458 203.18205662 -210.58459473 206.74807739 C-210.64524515 232.22077928 -215.99354259 246.95697713 -234 265 C-235.67516355 266.65949224 -237.35233797 268.31695645 -239.03125 269.97265625 C-239.88565674 270.81763672 -240.74006348 271.66261719 -241.62036133 272.53320312 C-243.30202836 274.19008096 -244.99171654 275.83886591 -246.69018555 277.47851562 C-252.12036726 282.80220109 -255.93834985 286.82786284 -256.43359375 294.6796875 C-256.45072611 296.41137408 -256.45165219 298.1432865 -256.4375 299.875 C-256.45748047 300.73480469 -256.47746094 301.59460938 -256.49804688 302.48046875 C-256.49274848 309.46375754 -254.97971051 314.93143132 -250.03515625 320.0234375 C-249.38417969 320.46945312 -248.73320312 320.91546875 -248.0625 321.375 C-247.08990234 322.06722656 -247.08990234 322.06722656 -246.09765625 322.7734375 C-241.95828211 325.19385366 -238.49491479 326.24977546 -233.69624805 326.26006222 C-232.64047434 326.26712781 -231.58470062 326.2741934 -230.49693376 326.2814731 C-229.34325278 326.27905802 -228.1895718 326.27664293 -227.00093079 326.27415466 C-225.77048151 326.27939134 -224.54003223 326.28462802 -223.27229661 326.29002339 C-219.85955834 326.3024336 -216.44702611 326.30586684 -213.03427947 326.30542648 C-209.35245929 326.30707542 -205.67067657 326.32014344 -201.98887634 326.33161926 C-193.93917147 326.35446323 -185.88949296 326.36238933 -177.83976007 326.36744571 C-172.81184703 326.37070366 -167.78394165 326.37722676 -162.75603294 326.3844471 C-148.83060229 326.40401282 -134.90517875 326.420417 -120.97973347 326.42332363 C-119.64319241 326.42360499 -119.64319241 326.42360499 -118.27965052 326.42389202 C-116.47337512 326.42425827 -114.66709972 326.42462197 -112.86082432 326.42498314 C-111.5158967 326.42525735 -111.5158967 326.42525735 -110.14379883 326.42553711 C-108.79722625 326.42580793 -108.79722625 326.42580793 -107.42345019 326.42608423 C-92.88077269 326.42962505 -78.33824334 326.45664178 -63.7956172 326.494035 C-48.85889877 326.53213362 -33.92225382 326.55148123 -18.98548573 326.55178314 C-10.60146406 326.55236739 -2.2176191 326.56083813 6.16635704 326.58978081 C13.3062512 326.61431561 20.44590422 326.62156356 27.58582916 326.60653328 C31.22668333 326.59937265 34.86706154 326.60018436 38.50786209 326.62294388 C42.46078887 326.64741707 46.41303988 326.632874 50.36601257 326.61473083 C52.07980363 326.63453079 52.07980363 326.63453079 53.82821673 326.65473074 C61.16650174 326.57791143 66.92668293 325.28357182 73 321 C79.165195 314.41327148 80.23546534 309.09684086 80.375 300.3125 C80.41238281 299.43916016 80.44976562 298.56582031 80.48828125 297.66601562 C80.60125004 289.26239258 77.96627046 285.14121118 72.28027344 279.11987305 C68.40378264 275.17321033 64.41803328 271.33962703 60.43725586 267.4987793 C46.08401471 253.60574613 35.27839214 240.42090631 34.7484436 219.55982971 C34.73729 217.63570289 34.73650124 215.7114955 34.74462891 213.78735352 C34.73919823 212.194533 34.73919823 212.194533 34.73365784 210.5695343 C34.72680842 208.28180863 34.72424996 205.99406678 34.72560501 203.70633125 C34.72657925 200.06631292 34.71351983 196.4265827 34.69662476 192.78660583 C34.65064051 182.44312787 34.62578619 172.09968034 34.61914062 161.75610352 C34.61408146 155.4084697 34.5896091 149.06113707 34.55381393 142.71360588 C34.54411605 140.31586466 34.54162824 137.91808147 34.54698563 135.52032661 C34.62576865 98.51080733 24.61852818 68.21968619 -1 41 C-1.5775 40.34644531 -2.155 39.69289062 -2.75 39.01953125 C-21.19705226 19.04895012 -50.36889946 6.60441711 -77.26147461 4.77856445 C-115.00663302 3.48158451 -146.35778462 13.93204814 -174 40 Z " fill="#FFFFFF" transform="translate(344,47)"/>
<path d="M0 0 C5.47701736 2.36263494 8.36816688 6.87555005 11.94140625 11.46875 C20.60121967 22.11686972 33.32037358 27.88714691 46.90991211 29.30322266 C49.88434867 29.43592791 52.83532043 29.46780331 55.8125 29.4375 C57.38680786 29.42614014 57.38680786 29.42614014 58.99291992 29.41455078 C73.23777042 29.11331677 86.81912787 25.24148353 97.3125 15.125 C99.82823796 12.45555096 102.00299933 9.6758472 104.125 6.6875 C106.69562145 3.17960102 108.73844115 1.33695964 113 0 C119.51079352 -0.94203789 123.73759034 0.07898888 129 4 C132.37417342 7.54720796 133.32189734 10.47444924 133.625 15.25 C133.10816075 26.20699214 125.1319423 33.74355027 117.55078125 40.8828125 C97.76621567 58.70684331 72.68050772 63.17691849 46.78515625 62.1640625 C20.75968734 60.63100543 1.17584799 48.35215306 -16.08984375 29.45703125 C-20.38404963 23.93340037 -21.56200937 19.4897133 -21.34765625 12.62109375 C-20.67195844 7.52678781 -18.07400685 4.99542098 -14.4375 1.625 C-9.55304349 -0.6840158 -5.31122498 -0.74850847 0 0 Z " fill="#FFFFFF" transform="translate(200,435)"/>
</svg>
